<?xml version="1.0" encoding="utf-8"?>
<!-- Generator: Adobe Illustrator 18.1.1, SVG Export Plug-In . SVG Version: 6.00 Build 0)  -->
<svg version="1.1" id="Layer_1" xmlns="http://www.w3.org/2000/svg" xmlns:xlink="http://www.w3.org/1999/xlink" x="0px" y="0px"
	 viewBox="0 0 130 16" enable-background="new 0 0 130 16" xml:space="preserve">
<g>
	<g>
		<path fill="#4F6D82" d="M0,0.8c0.8-0.1,2.1-0.2,3.5-0.2c1.7,0,2.9,0.3,3.8,0.9C8,2,8.4,2.8,8.4,3.9c0,1.5-1.1,2.5-2.1,2.9v0.1
			C7.1,7.1,7.6,7.9,7.9,9c0.4,1.3,0.7,2.9,0.9,3.3H6.1C5.9,11.9,5.6,11,5.3,9.6C5,8.1,4.5,7.7,3.4,7.7H2.6v4.6H0V0.8z M2.6,5.8h1
			c1.3,0,2.1-0.7,2.1-1.7c0-1.1-0.7-1.6-1.9-1.6c-0.6,0-1,0-1.2,0.1V5.8z"/>
		<path fill="#4F6D82" d="M11.8,8.9c0.1,1.1,1.2,1.6,2.4,1.6c0.9,0,1.6-0.1,2.3-0.4l0.3,1.8c-0.9,0.4-1.9,0.5-3.1,0.5
			c-2.9,0-4.5-1.7-4.5-4.3c0-2.1,1.3-4.5,4.3-4.5c2.7,0,3.8,2.1,3.8,4.2c0,0.4-0.1,0.8-0.1,1H11.8z M14.9,7.1c0-0.6-0.3-1.7-1.5-1.7
			c-1.1,0-1.6,1-1.6,1.7H14.9z"/>
		<path fill="#4F6D82" d="M18.4,10c0.5,0.3,1.5,0.6,2.3,0.6c0.8,0,1.1-0.3,1.1-0.7c0-0.4-0.3-0.7-1.2-1c-1.8-0.6-2.4-1.5-2.4-2.5
			c0-1.6,1.3-2.8,3.4-2.8c1,0,1.9,0.2,2.4,0.5l-0.4,1.8c-0.4-0.2-1.1-0.5-1.8-0.5c-0.6,0-1,0.3-1,0.7c0,0.4,0.3,0.6,1.4,1
			c1.6,0.6,2.3,1.4,2.3,2.6c0,1.6-1.2,2.8-3.7,2.8c-1.1,0-2.1-0.3-2.7-0.6L18.4,10z"/>
		<path fill="#4F6D82" d="M33.5,9.6c0,1.1,0,2,0.1,2.7h-2.3l-0.1-1.2h-0.1c-0.3,0.5-1.1,1.4-2.6,1.4c-1.7,0-3-1.1-3-3.7v-5h2.6v4.5
			c0,1.2,0.4,2,1.3,2c0.7,0,1.2-0.5,1.3-0.9c0.1-0.2,0.1-0.3,0.1-0.6v-5h2.6V9.6z"/>
		<path fill="#4F6D82" d="M35.2,0h2.6v12.3h-2.6V0z"/>
		<path fill="#4F6D82" d="M42.4,1.5v2.3h1.9v1.9h-1.9v3.1c0,1,0.3,1.5,1,1.5c0.4,0,0.5,0,0.8-0.1l0,2c-0.3,0.1-1,0.2-1.7,0.2
			c-0.8,0-1.6-0.3-2-0.7c-0.5-0.5-0.7-1.3-0.7-2.5V5.8h-1.1V3.8h1.1V2.2L42.4,1.5z"/>
		<path fill="#4F6D82" d="M52.5,10.2c0,0.8,0,1.6,0.1,2h-2.4l-0.2-0.8H50c-0.6,0.7-1.4,1-2.4,1c-1.7,0-2.7-1.2-2.7-2.6
			c0-2.2,2-3.2,5-3.2V6.5c0-0.5-0.2-1.1-1.5-1.1c-0.9,0-1.8,0.3-2.3,0.6l-0.5-1.7c0.6-0.3,1.7-0.8,3.3-0.8c2.8,0,3.7,1.7,3.7,3.7
			V10.2z M49.9,8.3c-1.4,0-2.5,0.3-2.5,1.3c0,0.7,0.4,1,1,1c0.6,0,1.2-0.4,1.4-1c0-0.1,0.1-0.3,0.1-0.4V8.3z"/>
		<path fill="#4F6D82" d="M62.3,0v9.8c0,1,0,2,0.1,2.5h-2.3l-0.1-1.2h-0.1c-0.5,0.9-1.6,1.4-2.6,1.4c-2,0-3.6-1.7-3.6-4.3
			c0-2.9,1.8-4.5,3.8-4.5c1.1,0,1.9,0.4,2.2,1h0V0H62.3z M59.7,7.4c0-0.1,0-0.3,0-0.5c-0.2-0.7-0.7-1.3-1.5-1.3
			c-1.2,0-1.8,1.1-1.8,2.4c0,1.4,0.7,2.3,1.8,2.3c0.8,0,1.4-0.5,1.5-1.3c0-0.2,0.1-0.4,0.1-0.6V7.4z"/>
		<path fill="#4F6D82" d="M72.4,8c0,3.1-2.2,4.5-4.5,4.5c-2.5,0-4.4-1.6-4.4-4.4c0-2.8,1.8-4.5,4.5-4.5C70.6,3.6,72.4,5.4,72.4,8z
			 M66.2,8c0,1.5,0.6,2.5,1.7,2.5c1,0,1.7-1,1.7-2.6c0-1.2-0.5-2.5-1.7-2.5C66.7,5.5,66.2,6.8,66.2,8z"/>
		<path fill="#4F6D82" d="M73.5,10c0.5,0.3,1.5,0.6,2.3,0.6c0.8,0,1.1-0.3,1.1-0.7c0-0.4-0.3-0.7-1.2-1c-1.8-0.6-2.4-1.5-2.4-2.5
			c0-1.6,1.3-2.8,3.4-2.8c1,0,1.9,0.2,2.4,0.5l-0.4,1.8c-0.4-0.2-1.1-0.5-1.8-0.5c-0.6,0-1,0.3-1,0.7c0,0.4,0.3,0.6,1.4,1
			c1.6,0.6,2.3,1.4,2.3,2.6c0,1.6-1.2,2.8-3.7,2.8c-1.1,0-2.1-0.3-2.7-0.6L73.5,10z"/>
	</g>
	<g>
		<path fill="#696B6B" d="M80.9,0.8c0.9-0.2,2-0.3,3.2-0.3c2.2,0,3.7,0.5,4.7,1.5c1.1,1,1.7,2.3,1.7,4.2c0,1.9-0.6,3.5-1.7,4.5
			c-1.1,1.1-2.9,1.7-5.2,1.7c-1.1,0-2-0.1-2.7-0.1V0.8z M82.4,11.1c0.4,0.1,0.9,0.1,1.5,0.1c3.2,0,5-1.8,5-4.9
			c0-2.8-1.5-4.5-4.7-4.5c-0.8,0-1.4,0.1-1.8,0.2V11.1z"/>
		<path fill="#696B6B" d="M93.6,1.6c0,0.5-0.4,0.9-1,0.9c-0.6,0-0.9-0.4-0.9-0.9c0-0.5,0.4-1,1-1C93.2,0.6,93.6,1,93.6,1.6z
			 M91.9,12.3V3.9h1.5v8.4H91.9z"/>
		<path fill="#696B6B" d="M102.7,11.1c0,1.9-0.4,3.1-1.2,3.8c-0.8,0.7-2,1-3.1,1c-1,0-2.1-0.2-2.8-0.7L96,14
			c0.6,0.4,1.4,0.7,2.5,0.7c1.6,0,2.7-0.8,2.7-2.9v-0.9h0c-0.4,0.8-1.4,1.4-2.7,1.4c-2.1,0-3.6-1.8-3.6-4.1c0-2.8,1.9-4.4,3.8-4.4
			c1.5,0,2.2,0.7,2.6,1.4h0l0.1-1.3h1.3c-0.1,0.6-0.1,1.3-0.1,2.3V11.1z M101.2,7.2c0-0.3,0-0.5-0.1-0.7c-0.3-0.9-1-1.6-2.1-1.6
			c-1.5,0-2.5,1.2-2.5,3.2c0,1.6,0.8,3,2.5,3c1,0,1.8-0.6,2.1-1.6c0.1-0.3,0.1-0.6,0.1-0.8V7.2z"/>
		<path fill="#696B6B" d="M106.4,1.6c0,0.5-0.4,0.9-1,0.9c-0.6,0-0.9-0.4-0.9-0.9c0-0.5,0.4-1,1-1C106,0.6,106.4,1,106.4,1.6z
			 M104.7,12.3V3.9h1.5v8.4H104.7z"/>
		<path fill="#696B6B" d="M110.1,1.9v2h2.2v1.2h-2.2v4.5c0,1,0.3,1.6,1.1,1.6c0.4,0,0.7,0,0.9-0.1l0.1,1.2c-0.3,0.1-0.8,0.2-1.3,0.2
			c-0.7,0-1.3-0.2-1.6-0.6c-0.4-0.5-0.6-1.2-0.6-2.2V5.1h-1.3V3.9h1.3V2.4L110.1,1.9z"/>
		<path fill="#696B6B" d="M119.5,10.3c0,0.7,0,1.4,0.1,2h-1.4l-0.1-1.1H118c-0.5,0.7-1.4,1.2-2.6,1.2c-1.7,0-2.6-1.2-2.6-2.4
			c0-2,1.8-3.1,5-3.1V6.8c0-0.7-0.2-1.9-1.9-1.9c-0.8,0-1.6,0.2-2.2,0.6l-0.3-1c0.7-0.4,1.7-0.7,2.8-0.7c2.6,0,3.2,1.7,3.2,3.4V10.3
			z M118,8c-1.7,0-3.5,0.3-3.5,1.9c0,1,0.7,1.5,1.4,1.5c1.1,0,1.8-0.7,2.1-1.4c0.1-0.2,0.1-0.3,0.1-0.5V8z"/>
		<path fill="#696B6B" d="M123.2,1.6c0,0.5-0.4,0.9-1,0.9c-0.6,0-0.9-0.4-0.9-0.9c0-0.5,0.4-1,1-1C122.8,0.6,123.2,1,123.2,1.6z
			 M121.5,12.3V3.9h1.5v8.4H121.5z"/>
		<path fill="#696B6B" d="M124.9,10.7c0.5,0.3,1.3,0.6,2,0.6c1.1,0,1.6-0.5,1.6-1.2c0-0.7-0.4-1.1-1.5-1.5c-1.5-0.6-2.2-1.4-2.2-2.4
			c0-1.3,1.1-2.5,2.9-2.5c0.8,0,1.6,0.2,2,0.5l-0.4,1.1c-0.3-0.2-0.9-0.5-1.7-0.5c-0.9,0-1.4,0.5-1.4,1.1c0,0.7,0.5,1,1.6,1.4
			c1.4,0.5,2.2,1.3,2.2,2.5c0,1.5-1.2,2.5-3.1,2.5c-0.9,0-1.8-0.2-2.4-0.6L124.9,10.7z"/>
	</g>
</g>
</svg>
