<?xml version="1.0" encoding="utf-8"?>
<!-- Generator: Adobe Illustrator 18.1.1, SVG Export Plug-In . SVG Version: 6.00 Build 0)  -->
<svg version="1.1" id="Layer_1" xmlns="http://www.w3.org/2000/svg" xmlns:xlink="http://www.w3.org/1999/xlink" x="0px" y="0px"
	 viewBox="0 0 170 21" enable-background="new 0 0 170 21" xml:space="preserve">
<g>
	<g>
		<path fill="#FFFFFF" d="M0,1c1.1-0.2,2.7-0.3,4.6-0.3c2.3,0,3.8,0.3,4.9,1.2c0.9,0.7,1.4,1.8,1.4,3.2c0,1.9-1.4,3.3-2.7,3.7v0.1
			c1.1,0.4,1.7,1.4,2,2.8c0.5,1.7,0.9,3.7,1.2,4.3H8c-0.2-0.5-0.6-1.7-1-3.6c-0.4-1.9-1.1-2.4-2.5-2.4h-1v6H0V1z M3.4,7.6h1.4
			c1.7,0,2.7-0.9,2.7-2.2c0-1.4-1-2.1-2.5-2.1c-0.8,0-1.3,0-1.6,0.1V7.6z"/>
		<path fill="#FFFFFF" d="M15.4,11.6c0.1,1.4,1.5,2.1,3.1,2.1c1.2,0,2.1-0.2,3.1-0.5l0.5,2.3c-1.1,0.5-2.5,0.7-4,0.7
			c-3.8,0-5.9-2.2-5.9-5.6c0-2.8,1.7-5.9,5.6-5.9c3.6,0,4.9,2.8,4.9,5.5c0,0.6-0.1,1.1-0.1,1.4H15.4z M19.4,9.3
			c0-0.8-0.4-2.2-1.9-2.2c-1.4,0-2,1.3-2.1,2.2H19.4z"/>
		<path fill="#FFFFFF" d="M24.1,13.1c0.6,0.4,1.9,0.8,3,0.8c1,0,1.5-0.3,1.5-0.9c0-0.6-0.3-0.9-1.6-1.3c-2.3-0.8-3.2-2-3.2-3.3
			c0-2.1,1.8-3.6,4.5-3.6c1.3,0,2.4,0.3,3.1,0.7l-0.6,2.4c-0.5-0.3-1.5-0.6-2.4-0.6c-0.8,0-1.3,0.3-1.3,0.9c0,0.5,0.4,0.8,1.8,1.3
			c2.1,0.7,3,1.8,3,3.4c0,2.1-1.6,3.6-4.8,3.6c-1.4,0-2.7-0.3-3.6-0.8L24.1,13.1z"/>
		<path fill="#FFFFFF" d="M43.8,12.5c0,1.4,0,2.6,0.1,3.6h-3l-0.2-1.6h-0.1c-0.4,0.7-1.5,1.8-3.5,1.8c-2.3,0-3.9-1.4-3.9-4.8V5h3.4
			v5.9c0,1.6,0.5,2.6,1.7,2.6c1,0,1.5-0.7,1.7-1.2c0.1-0.2,0.1-0.5,0.1-0.7V5h3.4V12.5z"/>
		<path fill="#FFFFFF" d="M46,0h3.4v16.1H46V0z"/>
		<path fill="#FFFFFF" d="M55.5,2v3H58v2.5h-2.5v4c0,1.3,0.3,1.9,1.4,1.9c0.5,0,0.7,0,1-0.1l0,2.6c-0.4,0.2-1.3,0.3-2.2,0.3
			c-1.1,0-2-0.4-2.6-1c-0.6-0.7-1-1.7-1-3.3V7.5h-1.5V5h1.5V2.9L55.5,2z"/>
		<path fill="#FFFFFF" d="M68.6,13.4c0,1,0,2.1,0.2,2.7h-3.1L65.5,15h-0.1c-0.7,0.9-1.9,1.4-3.2,1.4c-2.2,0-3.6-1.6-3.6-3.4
			c0-2.9,2.6-4.2,6.5-4.2V8.6c0-0.6-0.3-1.4-2-1.4c-1.1,0-2.3,0.4-3.1,0.8l-0.6-2.2c0.8-0.4,2.3-1,4.3-1c3.7,0,4.8,2.2,4.8,4.8V13.4
			z M65.3,10.8c-1.8,0-3.2,0.4-3.2,1.7c0,0.9,0.6,1.3,1.4,1.3c0.8,0,1.6-0.6,1.8-1.3c0-0.2,0.1-0.4,0.1-0.6V10.8z"/>
		<path fill="#FFFFFF" d="M81.5,0v12.8c0,1.2,0,2.6,0.1,3.3h-3.1l-0.1-1.6h-0.1c-0.7,1.2-2,1.9-3.5,1.9c-2.6,0-4.7-2.2-4.7-5.7
			c0-3.7,2.3-5.9,5-5.9c1.4,0,2.4,0.5,2.9,1.2h0V0H81.5z M78.1,9.7c0-0.2,0-0.4,0-0.6c-0.2-0.9-1-1.7-2-1.7c-1.6,0-2.4,1.4-2.4,3.1
			c0,1.9,0.9,3.1,2.4,3.1c1,0,1.8-0.7,2-1.7c0-0.2,0.1-0.5,0.1-0.8V9.7z"/>
		<path fill="#FFFFFF" d="M94.6,10.4c0,4-2.9,5.9-5.8,5.9c-3.2,0-5.7-2.1-5.7-5.7c0-3.6,2.4-5.9,5.9-5.9
			C92.4,4.7,94.6,7.1,94.6,10.4z M86.6,10.5c0,1.9,0.8,3.3,2.3,3.3c1.4,0,2.2-1.3,2.2-3.3c0-1.6-0.6-3.3-2.2-3.3
			C87.2,7.2,86.6,8.9,86.6,10.5z"/>
		<path fill="#FFFFFF" d="M96.2,13.1c0.6,0.4,1.9,0.8,3,0.8c1,0,1.5-0.3,1.5-0.9c0-0.6-0.3-0.9-1.6-1.3c-2.3-0.8-3.2-2-3.2-3.3
			c0-2.1,1.8-3.6,4.5-3.6c1.3,0,2.4,0.3,3.1,0.7l-0.6,2.4c-0.5-0.3-1.5-0.6-2.4-0.6c-0.8,0-1.3,0.3-1.3,0.9c0,0.5,0.4,0.8,1.8,1.3
			c2.1,0.7,3,1.8,3,3.4c0,2.1-1.6,3.6-4.8,3.6c-1.4,0-2.7-0.3-3.6-0.8L96.2,13.1z"/>
	</g>
	<g>
		<path fill="#FFFFFF" d="M105.8,1c1.2-0.2,2.6-0.3,4.2-0.3c2.8,0,4.8,0.7,6.2,1.9c1.4,1.2,2.2,3,2.2,5.5c0,2.5-0.8,4.5-2.2,5.9
			c-1.4,1.4-3.8,2.2-6.8,2.2c-1.4,0-2.6-0.1-3.6-0.2V1z M107.7,14.5c0.5,0.1,1.2,0.1,2,0.1c4.2,0,6.5-2.4,6.5-6.5
			c0-3.6-2-5.9-6.2-5.9c-1,0-1.8,0.1-2.3,0.2V14.5z"/>
		<path fill="#FFFFFF" d="M122.4,2c0,0.7-0.5,1.2-1.3,1.2c-0.7,0-1.2-0.5-1.2-1.2c0-0.7,0.5-1.2,1.2-1.2
			C121.9,0.8,122.4,1.3,122.4,2z M120.2,16.1V5.1h2v10.9H120.2z"/>
		<path fill="#FFFFFF" d="M134.3,14.5c0,2.5-0.5,4-1.6,5c-1.1,1-2.6,1.3-4,1.3c-1.3,0-2.8-0.3-3.6-0.9l0.5-1.5
			c0.7,0.5,1.9,0.9,3.2,0.9c2,0,3.5-1.1,3.5-3.8v-1.2h0c-0.6,1-1.8,1.8-3.5,1.8c-2.7,0-4.7-2.3-4.7-5.3c0-3.7,2.4-5.8,5-5.8
			c1.9,0,2.9,1,3.4,1.9h0l0.1-1.7h1.8c-0.1,0.8-0.1,1.7-0.1,3V14.5z M132.3,9.4c0-0.3,0-0.6-0.1-0.9c-0.4-1.2-1.3-2.1-2.8-2.1
			c-1.9,0-3.3,1.6-3.3,4.1c0,2.1,1.1,3.9,3.2,3.9c1.2,0,2.4-0.8,2.8-2c0.1-0.3,0.2-0.7,0.2-1.1V9.4z"/>
		<path fill="#FFFFFF" d="M139.1,2c0,0.7-0.5,1.2-1.3,1.2c-0.7,0-1.2-0.5-1.2-1.2c0-0.7,0.5-1.2,1.2-1.2
			C138.6,0.8,139.1,1.3,139.1,2z M136.9,16.1V5.1h2v10.9H136.9z"/>
		<path fill="#FFFFFF" d="M144,2.5v2.6h2.9v1.5H144v5.9c0,1.4,0.4,2.1,1.5,2.1c0.5,0,0.9,0,1.2-0.1l0.1,1.5c-0.4,0.1-1,0.3-1.8,0.3
			c-0.9,0-1.7-0.3-2.1-0.8c-0.5-0.6-0.8-1.6-0.8-2.9v-6h-1.7V5.1h1.7v-2L144,2.5z"/>
		<path fill="#FFFFFF" d="M156.2,13.4c0,1,0,1.9,0.2,2.6h-1.8l-0.2-1.4h-0.1c-0.6,0.9-1.8,1.6-3.3,1.6c-2.2,0-3.3-1.6-3.3-3.1
			c0-2.6,2.4-4.1,6.6-4.1V8.9c0-0.9-0.2-2.5-2.5-2.5c-1,0-2.1,0.3-2.9,0.8l-0.5-1.3c0.9-0.6,2.2-1,3.6-1c3.3,0,4.2,2.3,4.2,4.5V13.4
			z M154.3,10.5c-2.2,0-4.6,0.3-4.6,2.5c0,1.3,0.9,1.9,1.9,1.9c1.4,0,2.4-0.9,2.7-1.8c0.1-0.2,0.1-0.5,0.1-0.6V10.5z"/>
		<path fill="#FFFFFF" d="M161.1,2c0,0.7-0.5,1.2-1.3,1.2c-0.7,0-1.2-0.5-1.2-1.2c0-0.7,0.5-1.2,1.2-1.2
			C160.6,0.8,161.1,1.3,161.1,2z M158.9,16.1V5.1h2v10.9H158.9z"/>
		<path fill="#FFFFFF" d="M163.3,14c0.6,0.4,1.7,0.8,2.6,0.8c1.4,0,2.1-0.7,2.1-1.6c0-1-0.6-1.4-2-2c-2-0.7-2.9-1.8-2.9-3.1
			c0-1.8,1.4-3.2,3.8-3.2c1.1,0,2.1,0.3,2.7,0.7L169.1,7c-0.4-0.3-1.2-0.7-2.2-0.7c-1.2,0-1.8,0.7-1.8,1.5c0,0.9,0.6,1.3,2.1,1.9
			c1.9,0.7,2.9,1.7,2.9,3.3c0,1.9-1.5,3.3-4.1,3.3c-1.2,0-2.3-0.3-3.1-0.8L163.3,14z"/>
	</g>
</g>
</svg>
